<svg width="1920" height="1004" viewBox="0 0 1920 1004" fill="none" xmlns="http://www.w3.org/2000/svg">
<mask id="mask0_698_1660" style="mask-type:alpha" maskUnits="userSpaceOnUse" x="0" y="0" width="1920" height="1004">
<rect width="1920" height="1004" fill="#C4C4C4"/>
</mask>
<g mask="url(#mask0_698_1660)">
<path opacity="0.1" d="M1193.68 732.719C1190.75 732.719 1188.36 730.313 1188.36 727.36C1188.36 724.407 1190.75 722 1193.68 722C1196.61 722 1199 724.407 1199 727.36C1199 730.313 1196.63 732.719 1193.68 732.719ZM1199 759.425C1199 756.472 1196.61 754.066 1193.68 754.066C1190.75 754.066 1188.36 756.472 1188.36 759.425C1188.36 762.379 1190.75 764.785 1193.68 764.785C1196.63 764.785 1199 762.397 1199 759.425ZM1199 791.491C1199 788.538 1196.61 786.132 1193.68 786.132C1190.75 786.132 1188.36 788.538 1188.36 791.491C1188.36 794.444 1190.75 796.851 1193.68 796.851C1196.63 796.851 1199 794.463 1199 791.491ZM1199 823.557C1199 820.604 1196.61 818.197 1193.68 818.197C1190.75 818.197 1188.36 820.604 1188.36 823.557C1188.36 826.51 1190.75 828.916 1193.68 828.916C1196.63 828.935 1199 826.528 1199 823.557ZM1199 855.641C1199 852.688 1196.61 850.281 1193.68 850.281C1190.75 850.281 1188.36 852.688 1188.36 855.641C1188.36 858.594 1190.75 861 1193.68 861C1196.63 861 1199 858.594 1199 855.641ZM1167.16 727.36C1167.16 724.407 1164.77 722 1161.84 722C1158.91 722 1156.52 724.407 1156.52 727.36C1156.52 730.313 1158.91 732.719 1161.84 732.719C1164.79 732.719 1167.16 730.313 1167.16 727.36ZM1167.16 759.425C1167.16 756.472 1164.77 754.066 1161.84 754.066C1158.91 754.066 1156.52 756.472 1156.52 759.425C1156.52 762.379 1158.91 764.785 1161.84 764.785C1164.79 764.785 1167.16 762.397 1167.16 759.425ZM1167.16 791.491C1167.16 788.538 1164.77 786.132 1161.84 786.132C1158.91 786.132 1156.52 788.538 1156.52 791.491C1156.52 794.444 1158.91 796.851 1161.84 796.851C1164.79 796.851 1167.16 794.463 1167.16 791.491ZM1167.16 823.557C1167.16 820.604 1164.77 818.197 1161.84 818.197C1158.91 818.197 1156.52 820.604 1156.52 823.557C1156.52 826.51 1158.91 828.916 1161.84 828.916C1164.79 828.935 1167.16 826.528 1167.16 823.557ZM1167.16 855.641C1167.16 852.688 1164.77 850.281 1161.84 850.281C1158.91 850.281 1156.52 852.688 1156.52 855.641C1156.52 858.594 1158.91 861 1161.84 861C1164.79 861 1167.16 858.594 1167.16 855.641ZM1135.32 727.36C1135.32 724.407 1132.93 722 1130 722C1127.07 722 1124.68 724.407 1124.68 727.36C1124.68 730.313 1127.07 732.719 1130 732.719C1132.93 732.719 1135.32 730.313 1135.32 727.36ZM1135.32 759.425C1135.32 756.472 1132.93 754.066 1130 754.066C1127.07 754.066 1124.68 756.472 1124.68 759.425C1124.68 762.379 1127.07 764.785 1130 764.785C1132.93 764.785 1135.32 762.397 1135.32 759.425ZM1135.32 791.491C1135.32 788.538 1132.93 786.132 1130 786.132C1127.07 786.132 1124.68 788.538 1124.68 791.491C1124.68 794.444 1127.07 796.851 1130 796.851C1132.93 796.851 1135.32 794.463 1135.32 791.491ZM1135.32 823.557C1135.32 820.604 1132.93 818.197 1130 818.197C1127.07 818.197 1124.68 820.604 1124.68 823.557C1124.68 826.51 1127.07 828.916 1130 828.916C1132.93 828.916 1135.32 826.528 1135.32 823.557ZM1135.32 855.641C1135.32 852.688 1132.93 850.281 1130 850.281C1127.07 850.281 1124.68 852.688 1124.68 855.641C1124.68 858.594 1127.07 861 1130 861C1132.93 861 1135.32 858.594 1135.32 855.641ZM1103.48 727.36C1103.48 724.407 1101.09 722 1098.16 722C1095.23 722 1092.84 724.407 1092.84 727.36C1092.84 730.313 1095.23 732.719 1098.16 732.719C1101.09 732.719 1103.48 730.313 1103.48 727.36ZM1103.48 759.425C1103.48 756.472 1101.09 754.066 1098.16 754.066C1095.23 754.066 1092.84 756.472 1092.84 759.425C1092.84 762.379 1095.23 764.785 1098.16 764.785C1101.09 764.785 1103.48 762.397 1103.48 759.425ZM1103.48 791.491C1103.48 788.538 1101.09 786.132 1098.16 786.132C1095.23 786.132 1092.84 788.538 1092.84 791.491C1092.84 794.444 1095.23 796.851 1098.16 796.851C1101.09 796.851 1103.48 794.463 1103.48 791.491ZM1103.48 823.557C1103.48 820.604 1101.09 818.197 1098.16 818.197C1095.23 818.197 1092.84 820.604 1092.84 823.557C1092.84 826.51 1095.23 828.916 1098.16 828.916C1101.09 828.935 1103.48 826.528 1103.48 823.557ZM1103.48 855.641C1103.48 852.688 1101.09 850.281 1098.16 850.281C1095.23 850.281 1092.84 852.688 1092.84 855.641C1092.84 858.594 1095.23 861 1098.16 861C1101.09 861 1103.48 858.594 1103.48 855.641ZM1071.64 727.36C1071.64 724.407 1069.25 722 1066.32 722C1063.39 722 1061 724.407 1061 727.36C1061 730.313 1063.39 732.719 1066.32 732.719C1069.25 732.719 1071.64 730.313 1071.64 727.36ZM1071.64 759.425C1071.64 756.472 1069.25 754.066 1066.32 754.066C1063.39 754.066 1061 756.472 1061 759.425C1061 762.379 1063.39 764.785 1066.32 764.785C1069.25 764.785 1071.64 762.397 1071.64 759.425ZM1071.64 791.491C1071.64 788.538 1069.25 786.132 1066.32 786.132C1063.39 786.132 1061 788.538 1061 791.491C1061 794.444 1063.39 796.851 1066.32 796.851C1069.25 796.851 1071.64 794.463 1071.64 791.491ZM1071.64 823.557C1071.64 820.604 1069.25 818.197 1066.32 818.197C1063.39 818.197 1061 820.604 1061 823.557C1061 826.51 1063.39 828.916 1066.32 828.916C1069.25 828.935 1071.64 826.528 1071.64 823.557ZM1071.64 855.641C1071.64 852.688 1069.25 850.281 1066.32 850.281C1063.39 850.281 1061 852.688 1061 855.641C1061 858.594 1063.39 861 1066.32 861C1069.25 861 1071.64 858.594 1071.64 855.641Z" fill="#1A3454"/>
<path d="M2213.78 280.955C2190.17 383.133 2176.52 492.91 2172.84 610.285C2169.16 727.66 2121.87 828.194 2030.97 911.886C1940.08 995.577 1835.96 1010.92 1718.64 957.92C1601.31 904.918 1494.17 870.869 1397.2 855.773C1300.23 840.678 1222.32 793.09 1163.46 713.009C1104.61 632.929 1029.97 546.808 939.548 454.647C849.127 362.486 847.41 269.379 934.397 175.324C1021.38 81.2691 1084.23 -18.2982 1122.94 -123.378C1161.64 -228.458 1236.32 -283.843 1346.99 -289.533C1457.65 -295.223 1560.51 -291.975 1655.57 -279.79C1750.63 -267.605 1841.6 -238.922 1928.5 -193.743C2015.4 -148.563 2090.58 -83.696 2154.03 0.857481C2217.48 85.411 2237.4 178.777 2213.78 280.955Z" fill="#EFF7FF"/>
</g>
</svg>
