<svg width="126" height="126" viewBox="0 0 126 126" fill="none" xmlns="http://www.w3.org/2000/svg">
<path d="M119.985 85.1533V90.8146C119.985 93.9391 117.451 96.4727 114.324 96.4758H12.4371C9.31259 96.4758 6.77902 93.9422 6.77588 90.8146V85.1533H119.985Z" fill="#3B3B3B"/>
<path d="M119.985 26.6612V85.1534H6.77588V26.6612C6.77588 23.5367 9.30944 21.0031 12.4371 21H114.324C117.448 21 119.982 23.5336 119.985 26.6612Z" fill="#D9D9D9"/>
<path d="M76.5873 107.795H50.1735L53.9455 96.4756H72.8121L76.5842 107.795H76.5873Z" fill="#C0C0C0"/>
<path d="M42.6262 107.796H84.1346V113.457H42.6262V107.796Z" fill="#58575D"/>
<path d="M74.7013 85.1526V36.0938H91.6819V85.1495" fill="#F5F5F5"/>
<path d="M57.7208 51.4248H69.0402V85.1502H57.7208V51.4248Z" fill="#DF5F3C"/>
<path d="M69.0402 47.6526V51.4247H57.7208V47.6526L58.6638 45.7666H68.0971L69.0402 47.6526Z" fill="#D7CDBF"/>
<path d="M68.0971 45.7673H58.6638L63.382 36.334L68.1003 45.7673H68.0971Z" fill="#58575D"/>
<path d="M52.0595 45.531C52.0595 49.6991 49.526 53.0782 46.3983 53.0782C43.2706 53.0782 40.7371 49.6991 40.7371 45.531C40.7371 41.3628 46.3983 36.0977 46.3983 36.0977C46.3983 36.0977 52.0595 41.3628 52.0595 45.531Z" fill="#58575D"/>
<path d="M50.1735 64.3975H42.6262L44.5123 53.0781H48.2843L50.1704 64.3975H50.1735Z" fill="#F5F5F5"/>
<path d="M43.4907 85.1532L42.6262 64.3975H50.1735L49.3091 85.1532" fill="#933300"/>
<path d="M85.7567 105.906H41.0011C40.8553 105.906 40.7371 106.024 40.7371 106.17V113.189C40.7371 113.335 40.8553 113.454 41.0011 113.454H85.7567C85.9025 113.454 86.0207 113.335 86.0207 113.189V106.17C86.0207 106.024 85.9025 105.906 85.7567 105.906Z" fill="#C0C0C0"/>
<path d="M105.833 114.396H20.9274C20.4056 114.396 19.9844 113.975 19.9844 113.453C19.9844 112.931 20.4056 112.51 20.9274 112.51H105.833C106.355 112.51 106.776 112.931 106.776 113.453C106.776 113.975 106.355 114.396 105.833 114.396Z" fill="#8B8B8B"/>
<path d="M91.682 42.6982H82.2487V44.5843H91.682V42.6982Z" fill="#454546"/>
<path d="M91.682 72.8877H82.2487V74.7737H91.682V72.8877Z" fill="#454546"/>
<path d="M91.682 50.2461H86.0208V52.1321H91.682V50.2461Z" fill="#454546"/>
<path d="M91.682 57.792H82.2487V59.678H91.682V57.792Z" fill="#454546"/>
<path d="M91.682 65.3398H86.0208V67.2259H91.682V65.3398Z" fill="#454546"/>
<path d="M112.143 92.5918C113.044 92.5918 113.774 91.8612 113.774 90.96C113.774 90.0587 113.044 89.3281 112.143 89.3281C111.241 89.3281 110.511 90.0587 110.511 90.96C110.511 91.8612 111.241 92.5918 112.143 92.5918Z" fill="#D9D9D9"/>
</svg>
