<svg width="126" height="126" viewBox="0 0 126 126" fill="none" xmlns="http://www.w3.org/2000/svg">
<path d="M62.9528 87.3389C54.8877 87.3389 57.1959 99.7854 57.1959 99.7854L58.5076 97.3162L59.2457 106.304L61.2318 102.858L62.9562 113.638L64.6806 102.858L66.6666 106.304L67.4047 97.3162L68.7165 99.7854C68.7165 99.7854 71.0246 87.3389 62.9595 87.3389H62.9528Z" fill="#F3D151"/>
<path d="M71.6553 50.8371C69.9209 44.3085 66.0762 38.8569 64.1304 36.3911C63.5265 35.6262 62.3791 35.6262 61.7753 36.3911C59.8294 38.8569 55.9848 44.3085 54.2503 50.8371C53.7035 52.9003 53.3646 55.0709 53.3646 57.2885V81.9099C53.3646 85.6405 56.7228 89.0926 62.9528 89.0926C69.1828 89.0926 72.541 85.6405 72.541 81.9099C72.541 78.1792 72.541 57.2885 72.541 57.2885C72.541 55.0709 72.2022 52.9003 71.6553 50.8371Z" fill="#F5F5F5"/>
<path d="M61.9395 36.1839C60.0541 38.539 56.0316 44.1181 54.2468 50.8379H62.9527H71.6586C69.8738 44.1181 65.8547 38.539 63.9659 36.1839C63.4492 35.5364 62.4595 35.5364 61.9395 36.1839Z" fill="#DE5D44"/>
<path d="M62.9527 65.0756C65.3985 65.0756 67.3811 63.0929 67.3811 60.6472C67.3811 58.2014 65.3985 56.2188 62.9527 56.2188C60.507 56.2188 58.5243 58.2014 58.5243 60.6472C58.5243 63.0929 60.507 65.0756 62.9527 65.0756Z" fill="#C6E5F3"/>
<path d="M44.2226 74.4456L54.8139 66.9072V77.3509L43.1993 85.6173V76.4283C43.1993 75.6399 43.5818 74.9019 44.2226 74.4456Z" fill="#DE5D44"/>
<path d="M81.7098 74.4456L71.1185 66.9072V77.3509L82.7331 85.6173V76.4283C82.7331 75.6399 82.3506 74.9019 81.7098 74.4456Z" fill="#DE5D44"/>
<path d="M53.3646 81.8369H72.5444V88.6473C72.5444 88.8955 72.3431 89.0968 72.0948 89.0968H53.8142C53.5659 89.0968 53.3646 88.8955 53.3646 88.6473V81.8369Z" fill="#3B3B3B"/>
<path d="M62.9528 71.6885C62.7515 71.6885 60.7721 84.7121 60.7721 84.7121C60.6715 85.3126 60.6715 85.9232 60.7721 86.5237C60.7721 86.5237 62.718 99.5473 62.9528 99.5473C63.1876 99.5473 65.1335 86.5237 65.1335 86.5237C65.2341 85.9232 65.2341 85.3126 65.1335 84.7121C65.1335 84.7121 63.1574 71.6885 62.9528 71.6885Z" fill="#B54935"/>
<path d="M85.4671 98.7548H40.4616V95.1315C40.5388 87.7743 38.3547 80.719 34.1545 74.7071C29.7596 68.5375 27.4548 60.9555 27.6762 53.3635C28.2633 34.2508 44.2694 18.8755 63.4122 19.0097C70.4641 19.1036 77.251 21.2708 83.0449 25.2799C99.0543 36.3577 103.063 58.389 91.9889 74.3951V74.4018C87.7182 80.5077 85.4637 87.6736 85.4637 95.1214V98.7481L85.4671 98.7548ZM44.4941 94.7289H81.4413C81.5218 86.5967 84.0211 78.7833 88.681 72.1071C98.4907 57.9261 94.9379 38.4075 80.7569 28.5945C75.6239 25.0417 69.612 23.1227 63.3686 23.0389C46.4031 22.8879 32.2221 36.5455 31.702 53.4842C31.5041 60.1973 33.5439 66.9104 37.4456 72.3822C42.0619 78.9846 44.4908 86.6974 44.4941 94.7256V94.7289Z" fill="#D9D9D9"/>
<path d="M85.4671 98.7548H40.4616V95.1315C40.5388 87.7743 38.3547 80.719 34.1545 74.7071C29.7596 68.5375 27.4548 60.9555 27.6762 53.3635C28.2633 34.2508 44.2694 18.8755 63.4122 19.0097C70.4641 19.1036 77.251 21.2708 83.0449 25.2799C99.0543 36.3577 103.063 58.389 91.9889 74.3951C87.7182 80.5077 85.4637 87.6737 85.4637 95.1248V98.7514L85.4671 98.7548ZM44.4941 94.7289H81.4413C81.5218 86.5934 84.0245 78.7799 88.6844 72.1004C98.4907 57.9261 94.9379 38.4075 80.7569 28.5945C75.6239 25.0417 69.612 23.1227 63.3686 23.0389C46.4031 22.8879 32.2221 36.5455 31.702 53.4842C31.5041 60.1973 33.5439 66.9104 37.4456 72.3822C42.0619 78.9846 44.4908 86.6974 44.4941 94.7256V94.7289Z" fill="#F9E472"/>
<path d="M42.4779 101.204C42.4779 103.462 43.4743 105.609 45.1987 107.065L46.7688 108.394C48.1309 109.548 48.9159 111.238 48.9159 113.023V116.261C48.9159 118.867 51.0328 120.981 53.6395 120.981H72.2926C74.8993 120.981 77.0129 118.867 77.0162 116.257V113.02C77.0162 111.235 77.8013 109.541 79.1633 108.39L80.7334 107.062C82.4578 105.602 83.4542 103.459 83.4542 101.197V96.7354H42.4779V101.197V101.204Z" fill="#858585"/>
<path d="M72.2959 122.998H53.6395C49.929 122.998 46.9063 119.975 46.9029 116.264V113.024C46.9029 111.829 46.3796 110.702 45.4671 109.93L43.897 108.605C41.7163 106.76 40.465 104.063 40.465 101.204V94.7295H85.4671V101.204C85.4671 104.063 84.2157 106.76 82.0351 108.605L80.465 109.934C79.5525 110.705 79.0291 111.833 79.0291 113.027V116.264C79.0291 119.975 76.0064 122.998 72.2959 123.001V122.998ZM44.4908 98.7553V101.204C44.4908 102.875 45.2222 104.452 46.497 105.529L48.0671 106.857C49.8854 108.397 50.9288 110.645 50.9288 113.027V116.264C50.9288 117.754 52.1466 118.972 53.6395 118.972H72.2926C73.7855 118.972 74.9999 117.754 74.9999 116.261V113.024C74.9999 110.642 76.0433 108.394 77.8616 106.854L79.4317 105.525C80.7066 104.445 81.4379 102.872 81.4379 101.201V98.752H44.4908V98.7553Z" fill="#BFBFBF"/>
<path d="M83.4509 104.253H42.4746C41.3641 104.253 40.4617 103.351 40.4617 102.24C40.4617 101.13 41.3641 100.228 42.4746 100.228H83.4509C84.5613 100.228 85.4638 101.13 85.4638 102.24C85.4638 103.351 84.5613 104.253 83.4509 104.253Z" fill="#E8E8E8"/>
<path d="M78.2005 111.436H48.151C47.0405 111.436 46.1381 110.534 46.1381 109.423C46.1381 108.313 47.0405 107.41 48.151 107.41H78.2005C79.3109 107.41 80.2134 108.313 80.2134 109.423C80.2134 110.534 79.3109 111.436 78.2005 111.436Z" fill="#E8E8E8"/>
<path d="M62.9661 15.5203C63.8585 15.5203 64.5798 14.7991 64.5798 13.9067V4.61369C64.5798 3.7213 63.8585 3 62.9661 3C62.0737 3 61.3524 3.7213 61.3524 4.61369V13.9067C61.3524 14.7991 62.0737 15.5203 62.9661 15.5203Z" fill="#F9E472"/>
<path d="M102.399 20.2777L95.827 26.8499C95.1963 27.4806 95.1963 28.5005 95.827 29.1312C96.4578 29.7619 97.4776 29.7619 98.1083 29.1312L104.681 22.559C105.311 21.9283 105.311 20.9084 104.681 20.2777C104.05 19.647 103.03 19.647 102.399 20.2777Z" fill="#F9E472"/>
<path d="M116.318 60.3779H107.025C106.133 60.3779 105.412 61.0992 105.412 61.9916C105.412 62.884 106.133 63.6053 107.025 63.6053H116.318C117.211 63.6053 117.932 62.884 117.932 61.9916C117.932 61.0992 117.211 60.3779 116.318 60.3779Z" fill="#F9E472"/>
<path d="M18.9067 60.3779H9.61369C8.7213 60.3779 8 61.0992 8 61.9916C8 62.884 8.7213 63.6053 9.61369 63.6053H18.9067C19.7991 63.6053 20.5203 62.884 20.5203 61.9916C20.5203 61.0992 19.7991 60.3779 18.9067 60.3779Z" fill="#F9E472"/>
<path d="M30.1052 26.8499L23.533 20.2777C22.9023 19.647 21.8824 19.647 21.2517 20.2777C20.621 20.9084 20.621 21.9283 21.2517 22.559L27.8239 29.1312C28.4546 29.7619 29.4745 29.7619 30.1052 29.1312C30.7359 28.5005 30.7359 27.4806 30.1052 26.8499Z" fill="#F9E472"/>
</svg>
