<svg width="126" height="126" viewBox="0 0 126 126" fill="none" xmlns="http://www.w3.org/2000/svg">
<path d="M42.8859 78.9403L36.3571 89.5434V110.741C36.3571 112.893 34.6131 114.637 32.4611 114.637H26.3253C24.1732 114.637 22.4292 112.893 22.4292 110.741V59.1123C22.4292 59.1123 51.7147 66.705 51.2493 66.9377C50.7808 67.1704 42.8859 78.9373 42.8859 78.9373V78.9403Z" fill="#DBDBDB"/>
<path d="M22.4292 69.4922V110.744C22.4292 112.896 24.1732 114.64 26.3253 114.64H32.4611C32.5185 114.64 32.5729 114.634 32.6303 114.631C30.5569 114.54 28.9035 112.839 28.9035 110.744V84.7198C28.9035 83.0242 30.4027 81.7184 32.0832 81.9481L40.3348 83.0846L42.8859 78.9407C42.8859 78.9407 46.8605 73.0165 49.336 69.4922H22.4292Z" fill="#BDBDBD"/>
<path d="M72.5462 26.4327V100.981L49.4116 79.8413L14.9574 75.0928C11.542 74.6213 9 71.7046 9 68.2588V58.6955C9 55.2498 11.542 52.333 14.9574 51.8615L49.4116 47.113L72.5462 26.4297V26.4327Z" fill="#DBDBDB"/>
<path d="M14.9605 65.2635C11.5903 64.798 9.07256 61.9508 9.00606 58.5625C9.00606 58.6078 9.00305 58.6502 9.00305 58.6955V68.2589C9.00305 71.7046 11.545 74.6213 14.9605 75.0929L49.4146 79.8413L72.5493 100.981V91.1517L51.7964 72.1882C50.2458 70.7706 48.2993 69.8578 46.2168 69.5707L14.9605 65.2635Z" fill="#BDBDBD"/>
<path d="M61.139 90.5569L72.5462 100.979V91.1493L61.1421 80.7275C61.1421 86.552 61.1421 90.5539 61.1421 90.5539L61.139 90.5569Z" fill="#E5E1E4"/>
<path d="M72.546 26.4336V100.982L61.1389 90.5601C61.1389 90.5601 61.154 39.0588 61.148 36.6257L72.546 26.4366V26.4336Z" fill="#F5F5F5"/>
<path d="M27.7397 76.853L19.4368 75.7104V51.2489L27.7035 50.1094L27.7397 76.856V76.853Z" fill="#F5F5F5"/>
<path d="M27.7247 67.0224L19.4338 65.8799V75.7062L27.7368 76.8518L27.7217 67.0224H27.7247Z" fill="#E5E1E4"/>
<path d="M93.012 47.2549C89.0524 47.2549 85.8455 50.4648 85.8455 54.4214V57.8006L78.5097 62.2619C77.5999 62.815 77.5999 64.1359 78.5097 64.689L81.5202 66.5207L85.8455 69.1503V72.3089C85.8455 76.2684 89.0554 79.4753 93.012 79.4753H109.902C113.862 79.4753 117.069 76.2654 117.069 72.3089V54.4214C117.069 50.4618 113.925 47.2549 109.968 47.2549H93.012Z" fill="#FEE2C5"/>
<path d="M109.733 12H81.502C80.5076 12 79.9907 13.1848 80.6648 13.9163L86.5134 20.2304V34.5543C86.5134 38.5139 89.7234 41.7208 93.6799 41.7208H109.733C113.692 41.7208 116.899 38.5108 116.899 34.5543V19.1695C116.899 15.21 113.689 12.003 109.733 12.003V12Z" fill="#FEE2C5"/>
<path d="M109.733 114.954H81.502C80.5076 114.954 79.9907 113.769 80.6648 113.038L86.5134 106.724V92.3999C86.5134 88.4403 89.7234 85.2334 93.6799 85.2334H109.733C113.692 85.2334 116.899 88.4434 116.899 92.3999V107.785C116.899 111.744 113.689 114.951 109.733 114.951V114.954Z" fill="#FEE2C5"/>
<path d="M78.5279 97.7499C78.5279 100.443 76.3456 102.625 73.6525 102.625C70.9594 102.625 68.7771 100.443 68.7771 97.7499V29.6518C68.7771 26.9587 70.9594 24.7764 73.6525 24.7764C76.3456 24.7764 78.5279 26.9587 78.5279 29.6518V97.7499Z" fill="#E4837F"/>
<path d="M108.472 95.5348C106.952 94.0144 104.486 94.0144 102.965 95.5348L102.107 96.3932C101.901 96.5987 101.569 96.5987 101.366 96.3932L100.52 95.5469C98.9996 94.0265 96.5332 94.0265 95.0128 95.5469C93.4925 97.0672 93.4925 99.5336 95.0128 101.054L101.366 107.407C101.572 107.613 101.904 107.613 102.107 107.407L108.472 101.039C109.993 99.5185 109.993 97.0521 108.472 95.5318V95.5348Z" fill="#3B3B3B"/>
<path d="M97.05 101.058C95.5297 99.5372 95.5297 97.0708 97.05 95.5505C97.5487 95.0517 98.1502 94.7162 98.785 94.547C97.4822 94.1964 96.0344 94.5288 95.0128 95.5505C93.4925 97.0708 93.4925 99.5372 95.0128 101.058L101.366 107.411C101.572 107.617 101.904 107.617 102.107 107.411L102.754 106.764L97.047 101.058H97.05Z" fill="#3B3B3B"/>
<path d="M101.741 72.3123C105.153 72.3123 107.919 69.5462 107.919 66.1342C107.919 62.7221 105.153 59.9561 101.741 59.9561C98.329 59.9561 95.563 62.7221 95.563 66.1342C95.563 69.5462 98.329 72.3123 101.741 72.3123Z" fill="#3B3B3B"/>
<path d="M109.968 57.8946C109.467 57.8946 109.062 57.4896 109.062 56.9879V53.7447C109.062 53.2429 109.467 52.8379 109.968 52.8379C110.47 52.8379 110.875 53.2429 110.875 53.7447V56.9879C110.875 57.4896 110.47 57.8946 109.968 57.8946Z" fill="#3B3B3B"/>
<path d="M98.0959 22.666V31.0506L105.389 26.8583L98.0959 22.666Z" fill="#3B3B3B"/>
<path d="M98.0959 31.9584C97.9387 31.9584 97.7815 31.9191 97.6425 31.8375C97.3614 31.6743 97.1891 31.3751 97.1891 31.0516V22.6671C97.1891 22.3437 97.3614 22.0444 97.6425 21.8812C97.9236 21.718 98.2681 21.718 98.5492 21.8812L105.846 26.0735C106.127 26.2367 106.302 26.5359 106.302 26.8594C106.302 27.1828 106.13 27.485 105.846 27.6452L98.5492 31.8375C98.4102 31.9191 98.253 31.9584 98.0989 31.9584H98.0959ZM99.0026 24.2358V29.486L103.57 26.8624L99.0026 24.2388V24.2358Z" fill="#3B3B3B"/>
</svg>
